<?xml version="1.0" standalone="no"?>
<!DOCTYPE svg PUBLIC "-//W3C//DTD SVG 20010904//EN"
 "http://www.w3.org/TR/2001/REC-SVG-20010904/DTD/svg10.dtd">
<svg version="1.0" xmlns="http://www.w3.org/2000/svg"
 width="400.000000pt" height="400.000000pt" viewBox="0 0 400.000000 400.000000"
 preserveAspectRatio="xMidYMid meet">

<g transform="translate(-310.000000,700.000000) scale(0.100000,-0.100000)"
fill="#2A4BF4" stroke="none">
<path d="M5019 6672 c-53 -158 -123 -362 -154 -454 l-57 -168 -304 0 c-167 0
-304 -4 -304 -9 0 -5 63 -66 140 -136 217 -198 328 -324 485 -555 95 -140 248
-351 251 -347 1 1 -4 34 -12 72 -58 273 -68 373 -68 635 -1 279 3 311 76 765
l42 260 23 -130 c75 -426 103 -663 103 -890 0 -182 -8 -243 -65 -534 -19 -96
-33 -176 -32 -178 2 -1 50 66 107 150 254 373 493 655 708 836 28 25 52 48 52
53 0 4 -135 8 -299 8 l-300 0 -15 58 c-9 31 -56 179 -106 327 -49 149 -106
324 -125 390 -20 66 -39 123 -43 127 -4 4 -50 -122 -103 -280z"/>
<path d="M3984 5840 c3 -25 23 -164 45 -310 21 -146 37 -266 36 -268 -2 -2
-61 -18 -131 -37 -71 -18 -169 -49 -219 -68 -131 -52 -539 -218 -543 -222 -4
-4 428 -175 558 -220 58 -20 154 -50 215 -66 60 -17 110 -31 112 -32 1 -1 -5
-32 -12 -68 -12 -58 -75 -486 -75 -511 0 -5 84 71 188 170 309 296 396 367
687 557 l180 117 -65 -6 c-36 -4 -150 -19 -255 -34 -158 -22 -226 -27 -405
-27 -230 0 -312 9 -585 65 -77 15 -173 33 -213 40 -40 7 -72 13 -70 15 5 6
430 102 501 114 115 20 335 29 447 20 95 -9 170 -22 484 -89 157 -33 157 -28
0 90 -250 188 -375 299 -633 559 l-254 256 7 -45z"/>
<path d="M6015 5642 c-269 -267 -400 -382 -598 -525 -74 -54 -152 -113 -173
-131 l-39 -33 63 8 c35 5 123 23 195 40 410 95 592 98 997 14 296 -61 351 -73
356 -78 4 -4 -360 -77 -511 -102 -49 -8 -160 -19 -246 -25 -178 -12 -304 -5
-591 36 -98 14 -195 24 -215 22 -37 -3 -30 -8 197 -157 129 -85 258 -172 285
-195 61 -50 309 -279 428 -395 82 -80 87 -84 87 -58 0 45 -39 390 -54 475 -8
42 -12 80 -10 83 2 3 32 14 66 23 200 55 785 261 812 286 11 10 18 7 -224 101
-449 174 -496 190 -631 213 l-36 6 8 53 c22 142 79 570 76 573 -2 2 -111 -104
-242 -234z"/>
<path d="M4969 4703 c-230 -304 -448 -549 -642 -722 -64 -56 -117 -104 -117
-105 0 0 111 0 247 2 137 2 276 0 309 -3 l62 -6 17 -62 c27 -98 259 -765 270
-775 1 -1 19 46 40 105 21 59 73 203 115 318 43 116 92 256 111 312 l33 101
50 6 c28 3 160 5 294 5 134 -1 245 1 247 3 2 2 -33 36 -78 76 -235 205 -384
367 -594 644 -91 120 -169 221 -175 224 -5 3 -6 -5 -3 -18 66 -288 99 -548 91
-728 -5 -130 -53 -465 -95 -670 -10 -52 -22 -120 -27 -150 l-7 -55 -24 130
c-34 187 -80 501 -94 640 -21 213 -5 430 55 735 14 68 24 126 22 127 -2 2 -50
-59 -107 -134z"/>
</g>
</svg>
